<svg xmlns="http://www.w3.org/2000/svg" viewBox="0 0 860 366" width="860" height="366" font-family="system-ui, -apple-system, 'Segoe UI', Roboto, sans-serif" role="img" aria-label="Peak resident memory for the same builds. Both axes are log.">
<title>Peak resident memory for the same builds. Both axes are log.</title>
<rect width="860" height="366" fill="#ffffff"/>
<!-- generated by bench.plot from latest.jsonl -->
<text x="58" y="46" font-size="13" font-weight="600" fill="#1a1c1f">highs sink</text>
<line x1="58" y1="292.0" x2="390" y2="292.0" stroke="#e6e9ec" stroke-width="1"/>
<text x="50" y="296.0" font-size="11" text-anchor="end" font-family="ui-monospace, 'JetBrains Mono', 'SF Mono', Menlo, monospace" fill="#5c646d">0.1</text>
<line x1="58" y1="177.0" x2="390" y2="177.0" stroke="#e6e9ec" stroke-width="1"/>
<text x="50" y="181.0" font-size="11" text-anchor="end" font-family="ui-monospace, 'JetBrains Mono', 'SF Mono', Menlo, monospace" fill="#5c646d">1</text>
<line x1="58" y1="62.0" x2="390" y2="62.0" stroke="#e6e9ec" stroke-width="1"/>
<text x="50" y="66.0" font-size="11" text-anchor="end" font-family="ui-monospace, 'JetBrains Mono', 'SF Mono', Menlo, monospace" fill="#5c646d">10</text>
<text x="58.0" y="310" font-size="11" text-anchor="middle" font-family="ui-monospace, 'JetBrains Mono', 'SF Mono', Menlo, monospace" fill="#5c646d">10k</text>
<text x="168.7" y="310" font-size="11" text-anchor="middle" font-family="ui-monospace, 'JetBrains Mono', 'SF Mono', Menlo, monospace" fill="#5c646d">100k</text>
<text x="279.3" y="310" font-size="11" text-anchor="middle" font-family="ui-monospace, 'JetBrains Mono', 'SF Mono', Menlo, monospace" fill="#5c646d">1M</text>
<text x="390.0" y="310" font-size="11" text-anchor="middle" font-family="ui-monospace, 'JetBrains Mono', 'SF Mono', Menlo, monospace" fill="#5c646d">10M</text>
<path d="M58.0,265.5 L168.7,256.5 L279.3,212.2 L390.0,124.2" fill="none" stroke="#2a78d6" stroke-width="2" stroke-linejoin="round" stroke-linecap="round"/>
<circle cx="58.0" cy="265.5" r="3.4" fill="#2a78d6" stroke="#ffffff" stroke-width="2"/>
<circle cx="168.7" cy="256.5" r="3.4" fill="#2a78d6" stroke="#ffffff" stroke-width="2"/>
<circle cx="279.3" cy="212.2" r="3.4" fill="#2a78d6" stroke="#ffffff" stroke-width="2"/>
<circle cx="390.0" cy="124.2" r="3.4" fill="#2a78d6" stroke="#ffffff" stroke-width="2"/>
<path d="M58.0,258.0 L168.7,254.8 L279.3,226.4 L390.0,143.2" fill="none" stroke="#eb6834" stroke-width="2" stroke-linejoin="round" stroke-linecap="round"/>
<circle cx="58.0" cy="258.0" r="3.4" fill="#eb6834" stroke="#ffffff" stroke-width="2"/>
<circle cx="168.7" cy="254.8" r="3.4" fill="#eb6834" stroke="#ffffff" stroke-width="2"/>
<circle cx="279.3" cy="226.4" r="3.4" fill="#eb6834" stroke="#ffffff" stroke-width="2"/>
<circle cx="390.0" cy="143.2" r="3.4" fill="#eb6834" stroke="#ffffff" stroke-width="2"/>
<text x="424" y="46" font-size="13" font-weight="600" fill="#1a1c1f">lp sink</text>
<line x1="424" y1="292.0" x2="756" y2="292.0" stroke="#e6e9ec" stroke-width="1"/>
<line x1="424" y1="177.0" x2="756" y2="177.0" stroke="#e6e9ec" stroke-width="1"/>
<line x1="424" y1="62.0" x2="756" y2="62.0" stroke="#e6e9ec" stroke-width="1"/>
<text x="424.0" y="310" font-size="11" text-anchor="middle" font-family="ui-monospace, 'JetBrains Mono', 'SF Mono', Menlo, monospace" fill="#5c646d">10k</text>
<text x="534.7" y="310" font-size="11" text-anchor="middle" font-family="ui-monospace, 'JetBrains Mono', 'SF Mono', Menlo, monospace" fill="#5c646d">100k</text>
<text x="645.3" y="310" font-size="11" text-anchor="middle" font-family="ui-monospace, 'JetBrains Mono', 'SF Mono', Menlo, monospace" fill="#5c646d">1M</text>
<text x="756.0" y="310" font-size="11" text-anchor="middle" font-family="ui-monospace, 'JetBrains Mono', 'SF Mono', Menlo, monospace" fill="#5c646d">10M</text>
<path d="M424.0,265.7 L534.7,255.5 L645.3,220.2 L756.0,154.0" fill="none" stroke="#2a78d6" stroke-width="2" stroke-linejoin="round" stroke-linecap="round"/>
<circle cx="424.0" cy="265.7" r="3.4" fill="#2a78d6" stroke="#ffffff" stroke-width="2"/>
<circle cx="534.7" cy="255.5" r="3.4" fill="#2a78d6" stroke="#ffffff" stroke-width="2"/>
<circle cx="645.3" cy="220.2" r="3.4" fill="#2a78d6" stroke="#ffffff" stroke-width="2"/>
<circle cx="756.0" cy="154.0" r="3.4" fill="#2a78d6" stroke="#ffffff" stroke-width="2"/>
<path d="M424.0,252.2 L534.7,242.6 L645.3,204.3 L756.0,139.7" fill="none" stroke="#eb6834" stroke-width="2" stroke-linejoin="round" stroke-linecap="round"/>
<circle cx="424.0" cy="252.2" r="3.4" fill="#eb6834" stroke="#ffffff" stroke-width="2"/>
<circle cx="534.7" cy="242.6" r="3.4" fill="#eb6834" stroke="#ffffff" stroke-width="2"/>
<circle cx="645.3" cy="204.3" r="3.4" fill="#eb6834" stroke="#ffffff" stroke-width="2"/>
<circle cx="756.0" cy="139.7" r="3.4" fill="#eb6834" stroke="#ffffff" stroke-width="2"/>
<text x="768.0" y="143.7" font-size="12" font-weight="600" fill="#eb6834">linopy</text>
<text x="768.0" y="158.0" font-size="12" font-weight="600" fill="#2a78d6">polars</text>
<text x="58" y="332" font-size="11" fill="#5c646d">variables in the model</text>
<text x="52" y="24" font-size="11" letter-spacing="0.04em" fill="#5c646d">PEAK RSS (GB)</text>
<text x="58" y="354" font-size="11.5" fill="#5c646d">Peak resident memory for the same builds. Both axes are log.</text>
</svg>