<svg xmlns="http://www.w3.org/2000/svg" viewBox="0 0 860 726" width="860" height="726" font-family="system-ui, -apple-system, 'Segoe UI', Roboto, sans-serif" role="img" aria-label="Where the time goes at the `l` rung — import excluded, it is paid once per process.">
<title>Where the time goes at the `l` rung — import excluded, it is paid once per process.</title>
<rect width="860" height="726" fill="#ffffff"/>
<!-- generated by bench.plot from latest.jsonl -->
<text x="14" y="46" font-size="12.5" font-weight="600" fill="#1a1c1f">dispatch</text>
<rect x="92.0" y="56" width="25.5" height="24" rx="3" fill="#9cc6f2"/>
<rect x="119.5" y="56" width="98.7" height="24" rx="3" fill="#4a90e2"/>
<text x="82" y="72" font-size="11.5" text-anchor="end" font-family="ui-monospace, 'JetBrains Mono', 'SF Mono', Menlo, monospace" fill="#5c646d">polars</text>
<text x="230.2" y="72" font-size="11.5" font-family="ui-monospace, 'JetBrains Mono', 'SF Mono', Menlo, monospace" fill="#1a1c1f">0.69s</text>
<rect x="92.0" y="88" width="50.0" height="24" rx="3" fill="#9cc6f2"/>
<rect x="144.0" y="88" width="306.7" height="24" rx="3" fill="#4a90e2"/>
<text x="82" y="104" font-size="11.5" text-anchor="end" font-family="ui-monospace, 'JetBrains Mono', 'SF Mono', Menlo, monospace" fill="#5c646d">linopy</text>
<text x="462.6" y="104" font-size="11.5" font-family="ui-monospace, 'JetBrains Mono', 'SF Mono', Menlo, monospace" fill="#1a1c1f">1.9s</text>
<text x="14" y="152" font-size="12.5" font-weight="600" fill="#1a1c1f">fleet</text>
<rect x="92.0" y="162" width="115.8" height="24" rx="3" fill="#9cc6f2"/>
<rect x="209.8" y="162" width="156.9" height="24" rx="3" fill="#4a90e2"/>
<text x="82" y="178" font-size="11.5" text-anchor="end" font-family="ui-monospace, 'JetBrains Mono', 'SF Mono', Menlo, monospace" fill="#5c646d">polars</text>
<text x="378.7" y="178" font-size="11.5" font-family="ui-monospace, 'JetBrains Mono', 'SF Mono', Menlo, monospace" fill="#1a1c1f">1.5s</text>
<rect x="92.0" y="194" width="76.2" height="24" rx="3" fill="#9cc6f2"/>
<rect x="170.2" y="194" width="555.8" height="24" rx="3" fill="#4a90e2"/>
<text x="82" y="210" font-size="11.5" text-anchor="end" font-family="ui-monospace, 'JetBrains Mono', 'SF Mono', Menlo, monospace" fill="#5c646d">linopy</text>
<text x="738.0" y="210" font-size="11.5" font-family="ui-monospace, 'JetBrains Mono', 'SF Mono', Menlo, monospace" fill="#1a1c1f">3.4s</text>
<text x="14" y="258" font-size="12.5" font-weight="600" fill="#1a1c1f">nodal</text>
<rect x="92.0" y="268" width="42.7" height="24" rx="3" fill="#9cc6f2"/>
<rect x="136.7" y="268" width="45.0" height="24" rx="3" fill="#4a90e2"/>
<text x="82" y="284" font-size="11.5" text-anchor="end" font-family="ui-monospace, 'JetBrains Mono', 'SF Mono', Menlo, monospace" fill="#5c646d">polars</text>
<text x="193.7" y="284" font-size="11.5" font-family="ui-monospace, 'JetBrains Mono', 'SF Mono', Menlo, monospace" fill="#1a1c1f">0.49s</text>
<rect x="92.0" y="300" width="85.2" height="24" rx="3" fill="#9cc6f2"/>
<rect x="179.2" y="300" width="161.0" height="24" rx="3" fill="#4a90e2"/>
<text x="82" y="316" font-size="11.5" text-anchor="end" font-family="ui-monospace, 'JetBrains Mono', 'SF Mono', Menlo, monospace" fill="#5c646d">linopy</text>
<text x="352.1" y="316" font-size="11.5" font-family="ui-monospace, 'JetBrains Mono', 'SF Mono', Menlo, monospace" fill="#1a1c1f">1.3s</text>
<text x="14" y="364" font-size="12.5" font-weight="600" fill="#1a1c1f">profiled</text>
<rect x="92.0" y="374" width="318.1" height="24" rx="3" fill="#9cc6f2"/>
<rect x="412.1" y="374" width="208.3" height="24" rx="3" fill="#4a90e2"/>
<text x="82" y="390" font-size="11.5" text-anchor="end" font-family="ui-monospace, 'JetBrains Mono', 'SF Mono', Menlo, monospace" fill="#5c646d">polars</text>
<text x="632.5" y="390" font-size="11.5" font-family="ui-monospace, 'JetBrains Mono', 'SF Mono', Menlo, monospace" fill="#1a1c1f">2.8s</text>
<rect x="92.0" y="406" width="73.4" height="24" rx="3" fill="#9cc6f2"/>
<rect x="167.4" y="406" width="410.9" height="24" rx="3" fill="#4a90e2"/>
<text x="82" y="422" font-size="11.5" text-anchor="end" font-family="ui-monospace, 'JetBrains Mono', 'SF Mono', Menlo, monospace" fill="#5c646d">linopy</text>
<text x="590.3" y="422" font-size="11.5" font-family="ui-monospace, 'JetBrains Mono', 'SF Mono', Menlo, monospace" fill="#1a1c1f">2.6s</text>
<text x="14" y="470" font-size="12.5" font-weight="600" fill="#1a1c1f">sector</text>
<rect x="92.0" y="480" width="47.1" height="24" rx="3" fill="#9cc6f2"/>
<rect x="141.1" y="480" width="19.8" height="24" rx="3" fill="#4a90e2"/>
<text x="82" y="496" font-size="11.5" text-anchor="end" font-family="ui-monospace, 'JetBrains Mono', 'SF Mono', Menlo, monospace" fill="#5c646d">polars</text>
<text x="172.9" y="496" font-size="11.5" font-family="ui-monospace, 'JetBrains Mono', 'SF Mono', Menlo, monospace" fill="#1a1c1f">0.38s</text>
<rect x="92.0" y="512" width="120.2" height="24" rx="3" fill="#9cc6f2"/>
<rect x="214.2" y="512" width="109.0" height="24" rx="3" fill="#4a90e2"/>
<text x="82" y="528" font-size="11.5" text-anchor="end" font-family="ui-monospace, 'JetBrains Mono', 'SF Mono', Menlo, monospace" fill="#5c646d">linopy</text>
<text x="335.1" y="528" font-size="11.5" font-family="ui-monospace, 'JetBrains Mono', 'SF Mono', Menlo, monospace" fill="#1a1c1f">1.2s</text>
<text x="14" y="576" font-size="12.5" font-weight="600" fill="#1a1c1f">transport</text>
<rect x="92.0" y="586" width="162.6" height="24" rx="3" fill="#9cc6f2"/>
<rect x="256.6" y="586" width="123.1" height="24" rx="3" fill="#4a90e2"/>
<text x="82" y="602" font-size="11.5" text-anchor="end" font-family="ui-monospace, 'JetBrains Mono', 'SF Mono', Menlo, monospace" fill="#5c646d">polars</text>
<text x="391.7" y="602" font-size="11.5" font-family="ui-monospace, 'JetBrains Mono', 'SF Mono', Menlo, monospace" fill="#1a1c1f">1.6s</text>
<rect x="92.0" y="618" width="132.0" height="24" rx="3" fill="#9cc6f2"/>
<rect x="226.0" y="618" width="351.8" height="24" rx="3" fill="#4a90e2"/>
<text x="82" y="634" font-size="11.5" text-anchor="end" font-family="ui-monospace, 'JetBrains Mono', 'SF Mono', Menlo, monospace" fill="#5c646d">linopy</text>
<text x="589.8" y="634" font-size="11.5" font-family="ui-monospace, 'JetBrains Mono', 'SF Mono', Menlo, monospace" fill="#1a1c1f">2.6s</text>
<rect x="92" y="696" width="11" height="11" rx="2" fill="#9cc6f2"/>
<text x="108" y="706" font-size="11.5" fill="#5c646d">build</text>
<rect x="152" y="696" width="11" height="11" rx="2" fill="#4a90e2"/>
<text x="168" y="706" font-size="11.5" fill="#5c646d">emit</text>
<text x="12" y="720" font-size="11.5" fill="#5c646d">Where the time goes at the `l` rung — import excluded, it is paid once per process.</text>
</svg>