<svg xmlns="http://www.w3.org/2000/svg" viewBox="0 0 860 726" width="860" height="726" font-family="system-ui, -apple-system, 'Segoe UI', Roboto, sans-serif" role="img" aria-label="Where the time goes at the `l` rung — import excluded, it is paid once per process.">
<title>Where the time goes at the `l` rung — import excluded, it is paid once per process.</title>
<rect width="860" height="726" fill="#1e2129"/>
<!-- generated by bench.plot from latest.jsonl -->
<text x="14" y="46" font-size="12.5" font-weight="600" fill="#e6e8ea">dispatch</text>
<rect x="92.0" y="56" width="60.9" height="24" rx="3" fill="#7cb8f5"/>
<rect x="154.9" y="56" width="150.9" height="24" rx="3" fill="#3987e5"/>
<text x="82" y="72" font-size="11.5" text-anchor="end" font-family="ui-monospace, 'JetBrains Mono', 'SF Mono', Menlo, monospace" fill="#9aa3ad">polars</text>
<text x="317.7" y="72" font-size="11.5" font-family="ui-monospace, 'JetBrains Mono', 'SF Mono', Menlo, monospace" fill="#e6e8ea">0.57s</text>
<rect x="92.0" y="88" width="97.1" height="24" rx="3" fill="#7cb8f5"/>
<rect x="191.1" y="88" width="286.2" height="24" rx="3" fill="#3987e5"/>
<text x="82" y="104" font-size="11.5" text-anchor="end" font-family="ui-monospace, 'JetBrains Mono', 'SF Mono', Menlo, monospace" fill="#9aa3ad">linopy</text>
<text x="489.2" y="104" font-size="11.5" font-family="ui-monospace, 'JetBrains Mono', 'SF Mono', Menlo, monospace" fill="#e6e8ea">1.0s</text>
<text x="14" y="152" font-size="12.5" font-weight="600" fill="#e6e8ea">fleet</text>
<rect x="92.0" y="162" width="153.1" height="24" rx="3" fill="#7cb8f5"/>
<rect x="247.1" y="162" width="250.3" height="24" rx="3" fill="#3987e5"/>
<text x="82" y="178" font-size="11.5" text-anchor="end" font-family="ui-monospace, 'JetBrains Mono', 'SF Mono', Menlo, monospace" fill="#9aa3ad">polars</text>
<text x="509.5" y="178" font-size="11.5" font-family="ui-monospace, 'JetBrains Mono', 'SF Mono', Menlo, monospace" fill="#e6e8ea">1.1s</text>
<rect x="92.0" y="194" width="137.2" height="24" rx="3" fill="#7cb8f5"/>
<rect x="231.2" y="194" width="468.7" height="24" rx="3" fill="#3987e5"/>
<text x="82" y="210" font-size="11.5" text-anchor="end" font-family="ui-monospace, 'JetBrains Mono', 'SF Mono', Menlo, monospace" fill="#9aa3ad">linopy</text>
<text x="711.8" y="210" font-size="11.5" font-family="ui-monospace, 'JetBrains Mono', 'SF Mono', Menlo, monospace" fill="#e6e8ea">1.6s</text>
<text x="14" y="258" font-size="12.5" font-weight="600" fill="#e6e8ea">nodal</text>
<rect x="92.0" y="268" width="53.7" height="24" rx="3" fill="#7cb8f5"/>
<rect x="147.7" y="268" width="53.1" height="24" rx="3" fill="#3987e5"/>
<text x="82" y="284" font-size="11.5" text-anchor="end" font-family="ui-monospace, 'JetBrains Mono', 'SF Mono', Menlo, monospace" fill="#9aa3ad">polars</text>
<text x="212.8" y="284" font-size="11.5" font-family="ui-monospace, 'JetBrains Mono', 'SF Mono', Menlo, monospace" fill="#e6e8ea">0.29s</text>
<rect x="92.0" y="300" width="130.1" height="24" rx="3" fill="#7cb8f5"/>
<rect x="224.1" y="300" width="146.1" height="24" rx="3" fill="#3987e5"/>
<text x="82" y="316" font-size="11.5" text-anchor="end" font-family="ui-monospace, 'JetBrains Mono', 'SF Mono', Menlo, monospace" fill="#9aa3ad">linopy</text>
<text x="382.2" y="316" font-size="11.5" font-family="ui-monospace, 'JetBrains Mono', 'SF Mono', Menlo, monospace" fill="#e6e8ea">0.74s</text>
<text x="14" y="364" font-size="12.5" font-weight="600" fill="#e6e8ea">profiled</text>
<rect x="92.0" y="374" width="445.2" height="24" rx="3" fill="#7cb8f5"/>
<rect x="539.2" y="374" width="186.8" height="24" rx="3" fill="#3987e5"/>
<text x="82" y="390" font-size="11.5" text-anchor="end" font-family="ui-monospace, 'JetBrains Mono', 'SF Mono', Menlo, monospace" fill="#9aa3ad">polars</text>
<text x="738.0" y="390" font-size="11.5" font-family="ui-monospace, 'JetBrains Mono', 'SF Mono', Menlo, monospace" fill="#e6e8ea">1.7s</text>
<rect x="92.0" y="406" width="140.5" height="24" rx="3" fill="#7cb8f5"/>
<rect x="234.5" y="406" width="356.5" height="24" rx="3" fill="#3987e5"/>
<text x="82" y="422" font-size="11.5" text-anchor="end" font-family="ui-monospace, 'JetBrains Mono', 'SF Mono', Menlo, monospace" fill="#9aa3ad">linopy</text>
<text x="603.0" y="422" font-size="11.5" font-family="ui-monospace, 'JetBrains Mono', 'SF Mono', Menlo, monospace" fill="#e6e8ea">1.3s</text>
<text x="14" y="470" font-size="12.5" font-weight="600" fill="#e6e8ea">sector</text>
<rect x="92.0" y="480" width="71.4" height="24" rx="3" fill="#7cb8f5"/>
<rect x="165.4" y="480" width="23.6" height="24" rx="3" fill="#3987e5"/>
<text x="82" y="496" font-size="11.5" text-anchor="end" font-family="ui-monospace, 'JetBrains Mono', 'SF Mono', Menlo, monospace" fill="#9aa3ad">polars</text>
<text x="201.0" y="496" font-size="11.5" font-family="ui-monospace, 'JetBrains Mono', 'SF Mono', Menlo, monospace" fill="#e6e8ea">0.26s</text>
<rect x="92.0" y="512" width="287.1" height="24" rx="3" fill="#7cb8f5"/>
<rect x="381.1" y="512" width="148.8" height="24" rx="3" fill="#3987e5"/>
<text x="82" y="528" font-size="11.5" text-anchor="end" font-family="ui-monospace, 'JetBrains Mono', 'SF Mono', Menlo, monospace" fill="#9aa3ad">linopy</text>
<text x="541.8" y="528" font-size="11.5" font-family="ui-monospace, 'JetBrains Mono', 'SF Mono', Menlo, monospace" fill="#e6e8ea">1.2s</text>
<text x="14" y="576" font-size="12.5" font-weight="600" fill="#e6e8ea">transport</text>
<rect x="92.0" y="586" width="242.2" height="24" rx="3" fill="#7cb8f5"/>
<rect x="336.2" y="586" width="122.0" height="24" rx="3" fill="#3987e5"/>
<text x="82" y="602" font-size="11.5" text-anchor="end" font-family="ui-monospace, 'JetBrains Mono', 'SF Mono', Menlo, monospace" fill="#9aa3ad">polars</text>
<text x="470.1" y="602" font-size="11.5" font-family="ui-monospace, 'JetBrains Mono', 'SF Mono', Menlo, monospace" fill="#e6e8ea">0.98s</text>
<rect x="92.0" y="618" width="224.4" height="24" rx="3" fill="#7cb8f5"/>
<rect x="318.4" y="618" width="327.5" height="24" rx="3" fill="#3987e5"/>
<text x="82" y="634" font-size="11.5" text-anchor="end" font-family="ui-monospace, 'JetBrains Mono', 'SF Mono', Menlo, monospace" fill="#9aa3ad">linopy</text>
<text x="657.9" y="634" font-size="11.5" font-family="ui-monospace, 'JetBrains Mono', 'SF Mono', Menlo, monospace" fill="#e6e8ea">1.5s</text>
<rect x="92" y="696" width="11" height="11" rx="2" fill="#7cb8f5"/>
<text x="108" y="706" font-size="11.5" fill="#9aa3ad">build</text>
<rect x="152" y="696" width="11" height="11" rx="2" fill="#3987e5"/>
<text x="168" y="706" font-size="11.5" fill="#9aa3ad">emit</text>
<text x="12" y="720" font-size="11.5" fill="#9aa3ad">Where the time goes at the `l` rung — import excluded, it is paid once per process.</text>
</svg>