<svg xmlns="http://www.w3.org/2000/svg" viewBox="0 0 860 366" width="860" height="366" font-family="system-ui, -apple-system, 'Segoe UI', Roboto, sans-serif" role="img" aria-label="Wall time to a loaded solver. Both axes are log.">
<title>Wall time to a loaded solver. Both axes are log.</title>
<rect width="860" height="366" fill="#1e2129"/>
<!-- generated by bench.plot from latest.jsonl -->
<text x="58" y="46" font-size="13" font-weight="600" fill="#e6e8ea">highs sink</text>
<line x1="58" y1="292.0" x2="390" y2="292.0" stroke="#2f343e" stroke-width="1"/>
<text x="50" y="296.0" font-size="11" text-anchor="end" font-family="ui-monospace, 'JetBrains Mono', 'SF Mono', Menlo, monospace" fill="#9aa3ad">0.01s</text>
<line x1="58" y1="215.3" x2="390" y2="215.3" stroke="#2f343e" stroke-width="1"/>
<text x="50" y="219.3" font-size="11" text-anchor="end" font-family="ui-monospace, 'JetBrains Mono', 'SF Mono', Menlo, monospace" fill="#9aa3ad">0.10s</text>
<line x1="58" y1="138.7" x2="390" y2="138.7" stroke="#2f343e" stroke-width="1"/>
<text x="50" y="142.7" font-size="11" text-anchor="end" font-family="ui-monospace, 'JetBrains Mono', 'SF Mono', Menlo, monospace" fill="#9aa3ad">1.0s</text>
<line x1="58" y1="62.0" x2="390" y2="62.0" stroke="#2f343e" stroke-width="1"/>
<text x="50" y="66.0" font-size="11" text-anchor="end" font-family="ui-monospace, 'JetBrains Mono', 'SF Mono', Menlo, monospace" fill="#9aa3ad">10s</text>
<text x="58.0" y="310" font-size="11" text-anchor="middle" font-family="ui-monospace, 'JetBrains Mono', 'SF Mono', Menlo, monospace" fill="#9aa3ad">10k</text>
<text x="168.7" y="310" font-size="11" text-anchor="middle" font-family="ui-monospace, 'JetBrains Mono', 'SF Mono', Menlo, monospace" fill="#9aa3ad">100k</text>
<text x="279.3" y="310" font-size="11" text-anchor="middle" font-family="ui-monospace, 'JetBrains Mono', 'SF Mono', Menlo, monospace" fill="#9aa3ad">1M</text>
<text x="390.0" y="310" font-size="11" text-anchor="middle" font-family="ui-monospace, 'JetBrains Mono', 'SF Mono', Menlo, monospace" fill="#9aa3ad">10M</text>
<path d="M58.0,275.0 L168.7,265.5 L279.3,221.0 L390.0,151.2" fill="none" stroke="#3987e5" stroke-width="2" stroke-linejoin="round" stroke-linecap="round"/>
<circle cx="58.0" cy="275.0" r="3.4" fill="#3987e5" stroke="#1e2129" stroke-width="2"/>
<circle cx="168.7" cy="265.5" r="3.4" fill="#3987e5" stroke="#1e2129" stroke-width="2"/>
<circle cx="279.3" cy="221.0" r="3.4" fill="#3987e5" stroke="#1e2129" stroke-width="2"/>
<circle cx="390.0" cy="151.2" r="3.4" fill="#3987e5" stroke="#1e2129" stroke-width="2"/>
<path d="M58.0,191.1 L168.7,189.3 L279.3,171.4 L390.0,116.8" fill="none" stroke="#d95926" stroke-width="2" stroke-linejoin="round" stroke-linecap="round"/>
<circle cx="58.0" cy="191.1" r="3.4" fill="#d95926" stroke="#1e2129" stroke-width="2"/>
<circle cx="168.7" cy="189.3" r="3.4" fill="#d95926" stroke="#1e2129" stroke-width="2"/>
<circle cx="279.3" cy="171.4" r="3.4" fill="#d95926" stroke="#1e2129" stroke-width="2"/>
<circle cx="390.0" cy="116.8" r="3.4" fill="#d95926" stroke="#1e2129" stroke-width="2"/>
<text x="424" y="46" font-size="13" font-weight="600" fill="#e6e8ea">lp sink</text>
<line x1="424" y1="292.0" x2="756" y2="292.0" stroke="#2f343e" stroke-width="1"/>
<line x1="424" y1="215.3" x2="756" y2="215.3" stroke="#2f343e" stroke-width="1"/>
<line x1="424" y1="138.7" x2="756" y2="138.7" stroke="#2f343e" stroke-width="1"/>
<line x1="424" y1="62.0" x2="756" y2="62.0" stroke="#2f343e" stroke-width="1"/>
<text x="424.0" y="310" font-size="11" text-anchor="middle" font-family="ui-monospace, 'JetBrains Mono', 'SF Mono', Menlo, monospace" fill="#9aa3ad">10k</text>
<text x="534.7" y="310" font-size="11" text-anchor="middle" font-family="ui-monospace, 'JetBrains Mono', 'SF Mono', Menlo, monospace" fill="#9aa3ad">100k</text>
<text x="645.3" y="310" font-size="11" text-anchor="middle" font-family="ui-monospace, 'JetBrains Mono', 'SF Mono', Menlo, monospace" fill="#9aa3ad">1M</text>
<text x="756.0" y="310" font-size="11" text-anchor="middle" font-family="ui-monospace, 'JetBrains Mono', 'SF Mono', Menlo, monospace" fill="#9aa3ad">10M</text>
<path d="M424.0,278.8 L534.7,258.8 L645.3,207.0 L756.0,135.2" fill="none" stroke="#3987e5" stroke-width="2" stroke-linejoin="round" stroke-linecap="round"/>
<circle cx="424.0" cy="278.8" r="3.4" fill="#3987e5" stroke="#1e2129" stroke-width="2"/>
<circle cx="534.7" cy="258.8" r="3.4" fill="#3987e5" stroke="#1e2129" stroke-width="2"/>
<circle cx="645.3" cy="207.0" r="3.4" fill="#3987e5" stroke="#1e2129" stroke-width="2"/>
<circle cx="756.0" cy="135.2" r="3.4" fill="#3987e5" stroke="#1e2129" stroke-width="2"/>
<path d="M424.0,191.0 L534.7,189.7 L645.3,173.7 L756.0,124.1" fill="none" stroke="#d95926" stroke-width="2" stroke-linejoin="round" stroke-linecap="round"/>
<circle cx="424.0" cy="191.0" r="3.4" fill="#d95926" stroke="#1e2129" stroke-width="2"/>
<circle cx="534.7" cy="189.7" r="3.4" fill="#d95926" stroke="#1e2129" stroke-width="2"/>
<circle cx="645.3" cy="173.7" r="3.4" fill="#d95926" stroke="#1e2129" stroke-width="2"/>
<circle cx="756.0" cy="124.1" r="3.4" fill="#d95926" stroke="#1e2129" stroke-width="2"/>
<text x="768.0" y="128.1" font-size="12" font-weight="600" fill="#d95926">linopy</text>
<text x="768.0" y="153.2" font-size="12" font-weight="600" fill="#3987e5">polars</text>
<text x="58" y="332" font-size="11" fill="#9aa3ad">variables in the model</text>
<text x="52" y="24" font-size="11" letter-spacing="0.04em" fill="#9aa3ad">WALL SECONDS</text>
<text x="58" y="354" font-size="11.5" fill="#9aa3ad">Wall time to a loaded solver. Both axes are log.</text>
</svg>